<svg xmlns="http://www.w3.org/2000/svg" xmlns:xlink="http://www.w3.org/1999/xlink" width="500" zoomAndPan="magnify" viewBox="0 0 375 374.999991" height="500" preserveAspectRatio="xMidYMid meet" version="1.0"><defs><clipPath id="ec4dbd3111"><path d="M 187.5 0 C 83.945312 0 0 83.945312 0 187.5 C 0 291.054688 83.945312 375 187.5 375 C 291.054688 375 375 291.054688 375 187.5 C 375 83.945312 291.054688 0 187.5 0 Z M 187.5 0 " clip-rule="nonzero"/></clipPath><clipPath id="1d0d482eb2"><path d="M 53 46 L 245 46 L 245 238 L 53 238 Z M 53 46 " clip-rule="nonzero"/></clipPath><clipPath id="9126181791"><path d="M 337.492188 312.445312 L 62.511719 324.644531 L 50.3125 49.667969 L 325.289062 37.464844 Z M 337.492188 312.445312 " clip-rule="nonzero"/></clipPath><clipPath id="a069d650eb"><path d="M 337.492188 312.445312 L 62.511719 324.644531 L 50.3125 49.667969 L 325.289062 37.464844 Z M 337.492188 312.445312 " clip-rule="nonzero"/></clipPath><clipPath id="98cff09a79"><path d="M 147 128 L 335 128 L 335 316 L 147 316 Z M 147 128 " clip-rule="nonzero"/></clipPath><clipPath id="bd33e1ead9"><path d="M 337.492188 312.445312 L 62.511719 324.644531 L 50.3125 49.667969 L 325.289062 37.464844 Z M 337.492188 312.445312 " clip-rule="nonzero"/></clipPath><clipPath id="6672e218ca"><path d="M 337.492188 312.445312 L 62.511719 324.644531 L 50.3125 49.667969 L 325.289062 37.464844 Z M 337.492188 312.445312 " clip-rule="nonzero"/></clipPath></defs><g clip-path="url(#ec4dbd3111)"><rect x="-37.5" width="450" fill="#ffffff" y="-37.499999" height="449.999989" fill-opacity="1"/></g><g clip-path="url(#1d0d482eb2)"><g clip-path="url(#9126181791)"><g clip-path="url(#a069d650eb)"><path fill="#ff1616" d="M 77.179688 172.683594 L 147.90625 237.308594 L 244.363281 128.789062 L 175.097656 65.398438 L 175.089844 65.40625 C 161.378906 52.890625 142.90625 45.59375 122.902344 46.480469 C 82.835938 48.257812 51.789062 82.1875 53.566406 122.253906 C 54.457031 142.324219 63.421875 160.132812 77.179688 172.683594 Z M 77.179688 172.683594 " fill-opacity="1" fill-rule="nonzero"/></g></g></g><g clip-path="url(#98cff09a79)"><g clip-path="url(#bd33e1ead9)"><g clip-path="url(#6672e218ca)"><path fill="#fdcb58" d="M 215.046875 298.648438 C 228.496094 309.957031 246.003906 316.503906 264.9375 315.664062 C 305.011719 313.886719 336.050781 279.960938 334.273438 239.890625 C 333.433594 220.957031 325.351562 204.089844 312.894531 191.703125 L 313 191.589844 L 244.363281 128.789062 L 147.90625 237.308594 Z M 215.046875 298.648438 " fill-opacity="1" fill-rule="nonzero"/></g></g></g></svg>