<svg xmlns="http://www.w3.org/2000/svg" xmlns:xlink="http://www.w3.org/1999/xlink" width="500" zoomAndPan="magnify" viewBox="0 0 375 374.999991" height="500" preserveAspectRatio="xMidYMid meet" version="1.0"><defs><filter x="0%" y="0%" width="100%" height="100%" id="8958e7f33e"><feColorMatrix values="0 0 0 0 1 0 0 0 0 1 0 0 0 0 1 0 0 0 1 0" color-interpolation-filters="sRGB"/></filter><g/><clipPath id="68be8f3eed"><path d="M 151 146 L 261.75 146 L 261.75 193 L 151 193 Z M 151 146 " clip-rule="nonzero"/></clipPath><mask id="ac92016099"><g filter="url(#8958e7f33e)"><rect x="-37.5" width="450" fill="#000000" y="-37.499999" height="449.999989" fill-opacity="0.1"/></g></mask><clipPath id="aaba694e9b"><path d="M 1 0.160156 L 110 0.160156 L 110 46.71875 L 1 46.71875 Z M 1 0.160156 " clip-rule="nonzero"/></clipPath><clipPath id="5dd89cd8ed"><rect x="0" width="111" y="0" height="47"/></clipPath><clipPath id="59e8274c9c"><path d="M 151 164 L 261.75 164 L 261.75 193 L 151 193 Z M 151 164 " clip-rule="nonzero"/></clipPath><mask id="55736839f9"><g filter="url(#8958e7f33e)"><rect x="-37.5" width="450" fill="#000000" y="-37.499999" height="449.999989" fill-opacity="0.1"/></g></mask><clipPath id="8f607cadaa"><path d="M 1 0.640625 L 110 0.640625 L 110 28.71875 L 1 28.71875 Z M 1 0.640625 " clip-rule="nonzero"/></clipPath><clipPath id="e56f108c3d"><rect x="0" width="111" y="0" height="29"/></clipPath><mask id="e14a83c6be"><g filter="url(#8958e7f33e)"><rect x="-37.5" width="450" fill="#000000" y="-37.499999" height="449.999989" fill-opacity="0.1"/></g></mask><clipPath id="482db33d09"><path d="M 1 0.839844 L 100 0.839844 L 100 81.71875 L 1 81.71875 Z M 1 0.839844 " clip-rule="nonzero"/></clipPath><clipPath id="0ae4d79df9"><rect x="0" width="101" y="0" height="82"/></clipPath><mask id="1b014f8c4f"><g filter="url(#8958e7f33e)"><rect x="-37.5" width="450" fill="#000000" y="-37.499999" height="449.999989" fill-opacity="0.1"/></g></mask><clipPath id="c4659e2cc0"><path d="M 1 0.320312 L 99 0.320312 L 99 74.71875 L 1 74.71875 Z M 1 0.320312 " clip-rule="nonzero"/></clipPath><clipPath id="1eb377a41e"><rect x="0" width="100" y="0" height="75"/></clipPath></defs><path fill="#f5f5f5" d="M 260.816406 169.433594 C 260.816406 170.191406 260.777344 170.949219 260.703125 171.703125 C 260.628906 172.457031 260.519531 173.207031 260.371094 173.953125 C 260.222656 174.695312 260.039062 175.429688 259.820312 176.15625 C 259.597656 176.882812 259.34375 177.597656 259.054688 178.296875 C 258.761719 178.996094 258.4375 179.683594 258.082031 180.351562 C 257.722656 181.019531 257.335938 181.671875 256.914062 182.300781 C 256.492188 182.933594 256.039062 183.539062 255.558594 184.125 C 255.078125 184.714844 254.570312 185.273438 254.03125 185.8125 C 253.496094 186.347656 252.933594 186.855469 252.347656 187.335938 C 251.761719 187.816406 251.152344 188.269531 250.523438 188.691406 C 249.890625 189.113281 249.242188 189.5 248.574219 189.859375 C 247.902344 190.21875 247.21875 190.539062 246.519531 190.832031 C 245.816406 191.121094 245.105469 191.375 244.378906 191.597656 C 243.652344 191.816406 242.917969 192 242.175781 192.148438 C 241.429688 192.296875 240.679688 192.410156 239.925781 192.484375 C 239.171875 192.558594 238.414062 192.59375 237.65625 192.59375 L 175.167969 192.59375 C 174.410156 192.59375 173.652344 192.558594 172.898438 192.484375 C 172.144531 192.410156 171.394531 192.296875 170.648438 192.148438 C 169.90625 192 169.171875 191.816406 168.445312 191.597656 C 167.71875 191.375 167.007812 191.121094 166.304688 190.832031 C 165.605469 190.539062 164.921875 190.21875 164.25 189.859375 C 163.582031 189.5 162.933594 189.113281 162.300781 188.691406 C 161.671875 188.269531 161.0625 187.816406 160.476562 187.335938 C 159.890625 186.855469 159.328125 186.347656 158.792969 185.8125 C 158.253906 185.273438 157.746094 184.710938 157.265625 184.125 C 156.785156 183.539062 156.332031 182.933594 155.910156 182.300781 C 155.492188 181.671875 155.101562 181.019531 154.742188 180.351562 C 154.386719 179.683594 154.0625 178.996094 153.773438 178.296875 C 153.480469 177.597656 153.226562 176.882812 153.007812 176.15625 C 152.785156 175.429688 152.601562 174.695312 152.453125 173.953125 C 152.304688 173.207031 152.195312 172.457031 152.121094 171.703125 C 152.046875 170.949219 152.007812 170.191406 152.007812 169.433594 C 152.007812 168.675781 152.046875 167.917969 152.121094 167.164062 C 152.195312 166.410156 152.304688 165.660156 152.453125 164.914062 C 152.601562 164.171875 152.785156 163.4375 153.007812 162.710938 C 153.226562 161.984375 153.480469 161.273438 153.773438 160.570312 C 154.0625 159.871094 154.386719 159.183594 154.742188 158.515625 C 155.101562 157.847656 155.488281 157.199219 155.910156 156.566406 C 156.332031 155.9375 156.785156 155.328125 157.265625 154.742188 C 157.746094 154.15625 158.253906 153.59375 158.792969 153.058594 C 159.328125 152.519531 159.890625 152.011719 160.476562 151.53125 C 161.0625 151.050781 161.671875 150.597656 162.300781 150.175781 C 162.933594 149.753906 163.582031 149.367188 164.25 149.007812 C 164.917969 148.652344 165.605469 148.328125 166.304688 148.035156 C 167.007812 147.746094 167.71875 147.492188 168.445312 147.269531 C 169.171875 147.050781 169.90625 146.867188 170.648438 146.71875 C 171.394531 146.570312 172.144531 146.460938 172.898438 146.386719 C 173.652344 146.3125 174.410156 146.273438 175.167969 146.273438 L 237.65625 146.273438 C 238.414062 146.273438 239.171875 146.3125 239.925781 146.386719 C 240.679688 146.460938 241.429688 146.570312 242.175781 146.71875 C 242.917969 146.867188 243.652344 147.050781 244.378906 147.269531 C 245.105469 147.492188 245.816406 147.746094 246.519531 148.035156 C 247.21875 148.328125 247.90625 148.652344 248.574219 149.007812 C 249.242188 149.367188 249.890625 149.753906 250.523438 150.175781 C 251.152344 150.597656 251.761719 151.050781 252.347656 151.53125 C 252.933594 152.011719 253.496094 152.519531 254.03125 153.058594 C 254.570312 153.59375 255.078125 154.15625 255.558594 154.742188 C 256.039062 155.328125 256.492188 155.9375 256.914062 156.566406 C 257.335938 157.195312 257.722656 157.847656 258.082031 158.515625 C 258.4375 159.183594 258.761719 159.871094 259.054688 160.570312 C 259.34375 161.269531 259.597656 161.984375 259.820312 162.710938 C 260.039062 163.4375 260.222656 164.171875 260.371094 164.914062 C 260.519531 165.660156 260.628906 166.410156 260.703125 167.164062 C 260.777344 167.917969 260.816406 168.675781 260.816406 169.433594 Z M 260.816406 169.433594 " fill-opacity="1" fill-rule="nonzero"/><g clip-path="url(#68be8f3eed)"><g mask="url(#ac92016099)"><g transform="matrix(1, 0, 0, 1, 151, 146)"><g clip-path="url(#5dd89cd8ed)"><g clip-path="url(#aaba694e9b)"><path fill="#737373" d="M 109.816406 23.433594 C 109.816406 24.191406 109.777344 24.949219 109.703125 25.703125 C 109.628906 26.457031 109.519531 27.207031 109.371094 27.953125 C 109.222656 28.695312 109.039062 29.429688 108.820312 30.15625 C 108.597656 30.882812 108.34375 31.597656 108.054688 32.296875 C 107.761719 32.996094 107.4375 33.683594 107.082031 34.351562 C 106.722656 35.019531 106.335938 35.671875 105.914062 36.300781 C 105.492188 36.933594 105.039062 37.539062 104.558594 38.125 C 104.078125 38.714844 103.570312 39.273438 103.03125 39.8125 C 102.496094 40.347656 101.933594 40.855469 101.347656 41.335938 C 100.761719 41.816406 100.152344 42.269531 99.523438 42.691406 C 98.890625 43.113281 98.242188 43.5 97.574219 43.859375 C 96.902344 44.21875 96.21875 44.539062 95.519531 44.832031 C 94.816406 45.121094 94.105469 45.375 93.378906 45.597656 C 92.652344 45.816406 91.917969 46 91.175781 46.148438 C 90.429688 46.296875 89.679688 46.410156 88.925781 46.484375 C 88.171875 46.558594 87.414062 46.59375 86.65625 46.59375 L 24.167969 46.59375 C 23.410156 46.59375 22.652344 46.558594 21.898438 46.484375 C 21.144531 46.410156 20.394531 46.296875 19.648438 46.148438 C 18.90625 46 18.171875 45.816406 17.445312 45.597656 C 16.71875 45.375 16.007812 45.121094 15.304688 44.832031 C 14.605469 44.539062 13.917969 44.21875 13.25 43.859375 C 12.582031 43.5 11.933594 43.113281 11.300781 42.691406 C 10.671875 42.269531 10.0625 41.816406 9.476562 41.335938 C 8.890625 40.855469 8.328125 40.347656 7.792969 39.8125 C 7.253906 39.273438 6.746094 38.710938 6.265625 38.125 C 5.785156 37.539062 5.332031 36.933594 4.910156 36.300781 C 4.492188 35.671875 4.101562 35.019531 3.742188 34.351562 C 3.386719 33.683594 3.0625 32.996094 2.773438 32.296875 C 2.480469 31.597656 2.226562 30.882812 2.007812 30.15625 C 1.785156 29.429688 1.601562 28.695312 1.453125 27.953125 C 1.304688 27.207031 1.195312 26.457031 1.121094 25.703125 C 1.046875 24.949219 1.007812 24.191406 1.007812 23.433594 C 1.007812 22.675781 1.046875 21.917969 1.121094 21.164062 C 1.195312 20.410156 1.304688 19.660156 1.453125 18.914062 C 1.601562 18.171875 1.785156 17.4375 2.007812 16.710938 C 2.226562 15.984375 2.480469 15.273438 2.773438 14.570312 C 3.0625 13.871094 3.386719 13.183594 3.742188 12.515625 C 4.101562 11.847656 4.488281 11.199219 4.910156 10.566406 C 5.332031 9.9375 5.785156 9.328125 6.265625 8.742188 C 6.746094 8.15625 7.253906 7.59375 7.792969 7.058594 C 8.328125 6.519531 8.890625 6.011719 9.476562 5.53125 C 10.0625 5.050781 10.671875 4.597656 11.300781 4.175781 C 11.933594 3.753906 12.582031 3.367188 13.25 3.007812 C 13.917969 2.652344 14.605469 2.328125 15.304688 2.035156 C 16.007812 1.746094 16.71875 1.492188 17.445312 1.269531 C 18.171875 1.050781 18.90625 0.867188 19.648438 0.71875 C 20.394531 0.570312 21.144531 0.460938 21.898438 0.386719 C 22.652344 0.3125 23.410156 0.273438 24.167969 0.273438 L 86.65625 0.273438 C 87.414062 0.273438 88.171875 0.3125 88.925781 0.386719 C 89.679688 0.460938 90.429688 0.570312 91.175781 0.71875 C 91.917969 0.867188 92.652344 1.050781 93.378906 1.269531 C 94.105469 1.492188 94.816406 1.746094 95.519531 2.035156 C 96.21875 2.328125 96.90625 2.652344 97.574219 3.007812 C 98.242188 3.367188 98.890625 3.753906 99.523438 4.175781 C 100.152344 4.597656 100.761719 5.050781 101.347656 5.53125 C 101.933594 6.011719 102.496094 6.519531 103.03125 7.058594 C 103.570312 7.59375 104.078125 8.15625 104.558594 8.742188 C 105.039062 9.328125 105.492188 9.9375 105.914062 10.566406 C 106.335938 11.195312 106.722656 11.847656 107.082031 12.515625 C 107.4375 13.183594 107.761719 13.871094 108.054688 14.570312 C 108.34375 15.269531 108.597656 15.984375 108.820312 16.710938 C 109.039062 17.4375 109.222656 18.171875 109.371094 18.914062 C 109.519531 19.660156 109.628906 20.410156 109.703125 21.164062 C 109.777344 21.917969 109.816406 22.675781 109.816406 23.433594 Z M 109.816406 23.433594 " fill-opacity="1" fill-rule="nonzero"/></g></g></g></g></g><path fill="#ff1616" d="M 206.414062 146.273438 L 237.65625 146.273438 C 238.414062 146.273438 239.171875 146.3125 239.925781 146.386719 C 240.679688 146.460938 241.429688 146.570312 242.175781 146.71875 C 242.917969 146.867188 243.652344 147.050781 244.378906 147.269531 C 245.105469 147.492188 245.816406 147.746094 246.519531 148.035156 C 247.21875 148.328125 247.90625 148.652344 248.574219 149.007812 C 249.242188 149.367188 249.890625 149.753906 250.523438 150.175781 C 251.152344 150.597656 251.761719 151.050781 252.347656 151.53125 C 252.933594 152.011719 253.496094 152.519531 254.03125 153.058594 C 254.570312 153.59375 255.078125 154.15625 255.558594 154.742188 C 256.039062 155.328125 256.492188 155.9375 256.914062 156.566406 C 257.335938 157.195312 257.722656 157.847656 258.082031 158.515625 C 258.4375 159.183594 258.761719 159.871094 259.054688 160.570312 C 259.34375 161.269531 259.597656 161.984375 259.820312 162.710938 C 260.039062 163.4375 260.222656 164.171875 260.371094 164.914062 C 260.519531 165.660156 260.628906 166.410156 260.703125 167.164062 C 260.777344 167.917969 260.816406 168.675781 260.816406 169.433594 C 260.816406 170.191406 260.777344 170.949219 260.703125 171.703125 C 260.628906 172.457031 260.519531 173.207031 260.371094 173.953125 C 260.222656 174.695312 260.039062 175.429688 259.820312 176.15625 C 259.597656 176.882812 259.34375 177.597656 259.054688 178.296875 C 258.761719 178.996094 258.4375 179.683594 258.082031 180.351562 C 257.722656 181.019531 257.335938 181.671875 256.914062 182.300781 C 256.492188 182.933594 256.039062 183.539062 255.558594 184.125 C 255.078125 184.714844 254.570312 185.273438 254.03125 185.8125 C 253.496094 186.347656 252.933594 186.855469 252.347656 187.335938 C 251.761719 187.816406 251.152344 188.269531 250.523438 188.691406 C 249.890625 189.113281 249.242188 189.5 248.574219 189.859375 C 247.902344 190.21875 247.21875 190.539062 246.519531 190.832031 C 245.816406 191.121094 245.105469 191.375 244.378906 191.597656 C 243.652344 191.816406 242.917969 192 242.175781 192.148438 C 241.429688 192.296875 240.679688 192.410156 239.925781 192.484375 C 239.171875 192.558594 238.414062 192.59375 237.65625 192.59375 L 206.414062 192.59375 Z M 206.414062 146.273438 " fill-opacity="1" fill-rule="nonzero"/><g clip-path="url(#59e8274c9c)"><g mask="url(#55736839f9)"><g transform="matrix(1, 0, 0, 1, 151, 164)"><g clip-path="url(#e56f108c3d)"><g clip-path="url(#8f607cadaa)"><path fill="#737373" d="M 86.65625 19.398438 L 24.167969 19.398438 C 22.84375 19.398438 21.527344 19.285156 20.21875 19.0625 C 18.910156 18.835938 17.632812 18.5 16.382812 18.054688 C 15.136719 17.605469 13.933594 17.058594 12.777344 16.40625 C 11.625 15.753906 10.53125 15.007812 9.507812 14.167969 C 8.480469 13.328125 7.53125 12.40625 6.664062 11.40625 C 5.796875 10.402344 5.019531 9.332031 4.332031 8.199219 C 3.648438 7.0625 3.066406 5.875 2.585938 4.640625 C 2.101562 3.40625 1.730469 2.136719 1.46875 0.835938 C 1.296875 1.675781 1.175781 2.519531 1.101562 3.371094 C 1.023438 4.222656 0.996094 5.078125 1.015625 5.929688 C 1.035156 6.785156 1.097656 7.636719 1.210938 8.484375 C 1.324219 9.332031 1.484375 10.171875 1.691406 11 C 1.894531 11.832031 2.148438 12.648438 2.445312 13.449219 C 2.738281 14.25 3.078125 15.035156 3.460938 15.800781 C 3.84375 16.5625 4.269531 17.304688 4.734375 18.023438 C 5.199219 18.738281 5.703125 19.429688 6.242188 20.089844 C 6.785156 20.753906 7.359375 21.382812 7.972656 21.980469 C 8.582031 22.578125 9.226562 23.140625 9.898438 23.667969 C 10.570312 24.195312 11.273438 24.683594 12 25.132812 C 12.726562 25.582031 13.476562 25.992188 14.25 26.355469 C 15.023438 26.722656 15.8125 27.046875 16.621094 27.324219 C 17.429688 27.601562 18.25 27.835938 19.085938 28.023438 C 19.917969 28.210938 20.761719 28.351562 21.609375 28.449219 C 22.460938 28.542969 23.3125 28.589844 24.167969 28.589844 L 86.65625 28.589844 C 87.511719 28.589844 88.363281 28.542969 89.214844 28.449219 C 90.0625 28.355469 90.90625 28.210938 91.738281 28.023438 C 92.574219 27.835938 93.394531 27.601562 94.203125 27.324219 C 95.011719 27.046875 95.800781 26.722656 96.574219 26.355469 C 97.347656 25.992188 98.097656 25.582031 98.824219 25.132812 C 99.550781 24.683594 100.253906 24.195312 100.925781 23.667969 C 101.597656 23.140625 102.242188 22.578125 102.851562 21.980469 C 103.464844 21.382812 104.039062 20.753906 104.582031 20.089844 C 105.121094 19.429688 105.625 18.738281 106.089844 18.023438 C 106.554688 17.304688 106.980469 16.5625 107.363281 15.800781 C 107.746094 15.035156 108.085938 14.25 108.382812 13.449219 C 108.675781 12.648438 108.929688 11.832031 109.132812 11 C 109.339844 10.171875 109.5 9.332031 109.613281 8.484375 C 109.726562 7.636719 109.792969 6.785156 109.808594 5.929688 C 109.828125 5.078125 109.800781 4.222656 109.726562 3.371094 C 109.648438 2.519531 109.527344 1.675781 109.355469 0.835938 C 109.09375 2.136719 108.722656 3.40625 108.238281 4.640625 C 107.757812 5.875 107.175781 7.0625 106.492188 8.199219 C 105.804688 9.332031 105.027344 10.402344 104.160156 11.40625 C 103.292969 12.40625 102.34375 13.328125 101.316406 14.167969 C 100.289062 15.007812 99.199219 15.753906 98.046875 16.40625 C 96.890625 17.058594 95.6875 17.605469 94.4375 18.054688 C 93.191406 18.5 91.914062 18.835938 90.605469 19.0625 C 89.296875 19.285156 87.980469 19.398438 86.65625 19.398438 Z M 86.65625 19.398438 " fill-opacity="1" fill-rule="nonzero"/></g></g></g></g></g><path fill="#f5f5f5" d="M 215.601562 156.199219 C 215.601562 156.464844 215.578125 156.726562 215.527344 156.988281 C 215.472656 157.246094 215.398438 157.5 215.296875 157.746094 C 215.195312 157.992188 215.070312 158.222656 214.921875 158.445312 C 214.773438 158.664062 214.605469 158.871094 214.417969 159.058594 C 214.230469 159.246094 214.027344 159.414062 213.804688 159.5625 C 213.585938 159.710938 213.351562 159.832031 213.105469 159.933594 C 212.863281 160.039062 212.609375 160.113281 212.347656 160.167969 C 212.085938 160.21875 211.824219 160.242188 211.558594 160.246094 L 172.960938 160.246094 C 172.695312 160.242188 172.433594 160.21875 172.171875 160.167969 C 171.914062 160.113281 171.660156 160.039062 171.414062 159.9375 C 171.167969 159.835938 170.9375 159.710938 170.714844 159.5625 C 170.496094 159.414062 170.289062 159.246094 170.101562 159.058594 C 169.914062 158.871094 169.746094 158.667969 169.597656 158.445312 C 169.453125 158.222656 169.328125 157.992188 169.226562 157.746094 C 169.125 157.5 169.046875 157.246094 168.996094 156.988281 C 168.945312 156.726562 168.917969 156.464844 168.917969 156.199219 C 168.917969 155.933594 168.945312 155.667969 168.996094 155.410156 C 169.046875 155.148438 169.125 154.898438 169.226562 154.652344 C 169.328125 154.40625 169.453125 154.171875 169.601562 153.953125 C 169.75 153.730469 169.917969 153.527344 170.105469 153.339844 C 170.292969 153.152344 170.496094 152.984375 170.714844 152.839844 C 170.9375 152.691406 171.171875 152.566406 171.414062 152.464844 C 171.660156 152.363281 171.914062 152.285156 172.171875 152.234375 C 172.433594 152.183594 172.695312 152.15625 172.960938 152.15625 L 211.558594 152.15625 C 211.824219 152.15625 212.085938 152.183594 212.347656 152.234375 C 212.609375 152.285156 212.859375 152.363281 213.105469 152.464844 C 213.351562 152.566406 213.585938 152.691406 213.804688 152.839844 C 214.027344 152.984375 214.230469 153.152344 214.417969 153.339844 C 214.605469 153.527344 214.773438 153.734375 214.921875 153.953125 C 215.066406 154.175781 215.191406 154.40625 215.292969 154.652344 C 215.394531 154.898438 215.472656 155.152344 215.523438 155.410156 C 215.578125 155.671875 215.601562 155.933594 215.601562 156.199219 Z M 215.601562 156.199219 " fill-opacity="1" fill-rule="nonzero"/><path fill="#f5f5f5" d="M 209.832031 122.289062 C 210.25 122.921875 210.632812 123.574219 210.984375 124.246094 C 211.339844 124.917969 211.65625 125.605469 211.941406 126.308594 C 212.226562 127.011719 212.476562 127.726562 212.691406 128.457031 C 212.90625 129.183594 213.082031 129.917969 213.226562 130.664062 C 213.367188 131.410156 213.472656 132.160156 213.539062 132.914062 C 213.609375 133.671875 213.640625 134.425781 213.632812 135.1875 C 213.628906 135.945312 213.585938 136.699219 213.503906 137.453125 C 213.425781 138.210938 213.308594 138.957031 213.152344 139.699219 C 213 140.441406 212.808594 141.175781 212.582031 141.902344 C 212.359375 142.625 212.097656 143.335938 211.800781 144.035156 C 211.503906 144.734375 211.175781 145.414062 210.8125 146.082031 C 210.449219 146.746094 210.054688 147.394531 209.628906 148.019531 C 209.203125 148.648438 208.746094 149.253906 208.261719 149.835938 C 207.773438 150.417969 207.261719 150.976562 206.722656 151.507812 C 206.179688 152.039062 205.613281 152.542969 205.023438 153.019531 C 204.433594 153.496094 203.824219 153.941406 203.1875 154.359375 L 150.960938 188.660156 C 150.324219 189.078125 149.671875 189.460938 149 189.816406 C 148.328125 190.167969 147.640625 190.484375 146.9375 190.769531 C 146.234375 191.054688 145.519531 191.304688 144.792969 191.519531 C 144.066406 191.734375 143.328125 191.914062 142.582031 192.054688 C 141.839844 192.195312 141.089844 192.300781 140.332031 192.371094 C 139.578125 192.4375 138.820312 192.46875 138.0625 192.464844 C 137.304688 192.457031 136.546875 192.414062 135.792969 192.335938 C 135.039062 192.253906 134.289062 192.136719 133.546875 191.984375 C 132.804688 191.828125 132.070312 191.640625 131.347656 191.414062 C 130.625 191.1875 129.914062 190.925781 129.214844 190.628906 C 128.515625 190.335938 127.832031 190.003906 127.167969 189.644531 C 126.5 189.28125 125.855469 188.886719 125.226562 188.457031 C 124.601562 188.03125 123.996094 187.578125 123.414062 187.089844 C 122.828125 186.605469 122.273438 186.089844 121.742188 185.550781 C 121.207031 185.011719 120.703125 184.445312 120.226562 183.855469 C 119.75 183.265625 119.304688 182.652344 118.886719 182.019531 C 118.472656 181.382812 118.085938 180.730469 117.734375 180.058594 C 117.382812 179.386719 117.066406 178.699219 116.78125 177.996094 C 116.496094 177.292969 116.246094 176.578125 116.03125 175.851562 C 115.816406 175.125 115.640625 174.386719 115.496094 173.644531 C 115.355469 172.898438 115.25 172.148438 115.183594 171.394531 C 115.113281 170.636719 115.082031 169.878906 115.089844 169.121094 C 115.09375 168.363281 115.136719 167.605469 115.21875 166.851562 C 115.296875 166.097656 115.414062 165.351562 115.570312 164.609375 C 115.722656 163.863281 115.914062 163.132812 116.140625 162.40625 C 116.367188 161.683594 116.625 160.972656 116.921875 160.273438 C 117.21875 159.574219 117.546875 158.894531 117.910156 158.226562 C 118.273438 157.5625 118.667969 156.914062 119.09375 156.289062 C 119.519531 155.660156 119.976562 155.054688 120.460938 154.472656 C 120.949219 153.890625 121.460938 153.332031 122 152.800781 C 122.542969 152.269531 123.109375 151.765625 123.699219 151.289062 C 124.289062 150.8125 124.898438 150.367188 125.535156 149.949219 L 177.765625 115.652344 C 178.398438 115.234375 179.050781 114.851562 179.722656 114.496094 C 180.394531 114.144531 181.082031 113.828125 181.785156 113.542969 C 182.488281 113.257812 183.203125 113.007812 183.929688 112.792969 C 184.65625 112.578125 185.394531 112.398438 186.136719 112.257812 C 186.882812 112.117188 187.632812 112.011719 188.386719 111.941406 C 189.144531 111.875 189.902344 111.84375 190.660156 111.847656 C 191.417969 111.855469 192.171875 111.898438 192.929688 111.976562 C 193.683594 112.058594 194.429688 112.175781 195.171875 112.328125 C 195.914062 112.480469 196.648438 112.671875 197.375 112.898438 C 198.097656 113.125 198.808594 113.382812 199.507812 113.679688 C 200.207031 113.976562 200.886719 114.304688 201.554688 114.667969 C 202.21875 115.03125 202.867188 115.425781 203.492188 115.851562 C 204.121094 116.277344 204.726562 116.734375 205.308594 117.21875 C 205.890625 117.703125 206.449219 118.21875 206.980469 118.757812 C 207.511719 119.296875 208.015625 119.863281 208.492188 120.453125 C 208.96875 121.042969 209.417969 121.65625 209.832031 122.289062 Z M 209.832031 122.289062 " fill-opacity="1" fill-rule="nonzero"/><g mask="url(#e14a83c6be)"><g transform="matrix(1, 0, 0, 1, 114, 111)"><g clip-path="url(#0ae4d79df9)"><g clip-path="url(#482db33d09)"><path fill="#737373" d="M 95.832031 11.289062 C 96.25 11.921875 96.632812 12.574219 96.984375 13.246094 C 97.339844 13.917969 97.65625 14.605469 97.941406 15.308594 C 98.226562 16.011719 98.476562 16.726562 98.691406 17.457031 C 98.90625 18.183594 99.082031 18.917969 99.226562 19.664062 C 99.367188 20.410156 99.472656 21.160156 99.539062 21.914062 C 99.609375 22.671875 99.640625 23.425781 99.632812 24.1875 C 99.628906 24.945312 99.585938 25.699219 99.503906 26.453125 C 99.425781 27.210938 99.308594 27.957031 99.152344 28.699219 C 99 29.441406 98.808594 30.175781 98.582031 30.902344 C 98.359375 31.625 98.097656 32.335938 97.800781 33.035156 C 97.503906 33.734375 97.175781 34.414062 96.8125 35.082031 C 96.449219 35.746094 96.054688 36.394531 95.628906 37.019531 C 95.203125 37.648438 94.746094 38.253906 94.261719 38.835938 C 93.773438 39.417969 93.261719 39.976562 92.722656 40.507812 C 92.179688 41.039062 91.613281 41.542969 91.023438 42.019531 C 90.433594 42.496094 89.824219 42.941406 89.1875 43.359375 L 36.960938 77.660156 C 36.324219 78.078125 35.671875 78.460938 35 78.816406 C 34.328125 79.167969 33.640625 79.484375 32.9375 79.769531 C 32.234375 80.054688 31.519531 80.304688 30.792969 80.519531 C 30.066406 80.734375 29.328125 80.914062 28.582031 81.054688 C 27.839844 81.195312 27.089844 81.300781 26.332031 81.371094 C 25.578125 81.4375 24.820312 81.46875 24.0625 81.464844 C 23.304688 81.457031 22.546875 81.414062 21.792969 81.335938 C 21.039062 81.253906 20.289062 81.136719 19.546875 80.984375 C 18.804688 80.828125 18.070312 80.640625 17.347656 80.414062 C 16.625 80.1875 15.914062 79.925781 15.214844 79.628906 C 14.515625 79.335938 13.832031 79.003906 13.167969 78.644531 C 12.5 78.28125 11.855469 77.886719 11.226562 77.457031 C 10.601562 77.03125 9.996094 76.578125 9.414062 76.089844 C 8.828125 75.605469 8.273438 75.089844 7.742188 74.550781 C 7.207031 74.011719 6.703125 73.445312 6.226562 72.855469 C 5.75 72.265625 5.304688 71.652344 4.886719 71.019531 C 4.472656 70.382812 4.085938 69.730469 3.734375 69.058594 C 3.382812 68.386719 3.066406 67.699219 2.78125 66.996094 C 2.496094 66.292969 2.246094 65.578125 2.03125 64.851562 C 1.816406 64.125 1.640625 63.386719 1.496094 62.644531 C 1.355469 61.898438 1.25 61.148438 1.183594 60.394531 C 1.113281 59.636719 1.082031 58.878906 1.089844 58.121094 C 1.09375 57.363281 1.136719 56.605469 1.21875 55.851562 C 1.296875 55.097656 1.414062 54.351562 1.570312 53.609375 C 1.722656 52.863281 1.914062 52.132812 2.140625 51.40625 C 2.367188 50.683594 2.625 49.972656 2.921875 49.273438 C 3.21875 48.574219 3.546875 47.894531 3.910156 47.226562 C 4.273438 46.5625 4.667969 45.914062 5.09375 45.289062 C 5.519531 44.660156 5.976562 44.054688 6.460938 43.472656 C 6.949219 42.890625 7.460938 42.332031 8 41.800781 C 8.542969 41.269531 9.109375 40.765625 9.699219 40.289062 C 10.289062 39.8125 10.898438 39.367188 11.535156 38.949219 L 63.765625 4.652344 C 64.398438 4.234375 65.050781 3.851562 65.722656 3.496094 C 66.394531 3.144531 67.082031 2.828125 67.785156 2.542969 C 68.488281 2.257812 69.203125 2.007812 69.929688 1.792969 C 70.65625 1.578125 71.394531 1.398438 72.136719 1.257812 C 72.882812 1.117188 73.632812 1.011719 74.386719 0.941406 C 75.144531 0.875 75.902344 0.84375 76.660156 0.847656 C 77.417969 0.855469 78.171875 0.898438 78.929688 0.976562 C 79.683594 1.058594 80.429688 1.175781 81.171875 1.328125 C 81.914062 1.480469 82.648438 1.671875 83.375 1.898438 C 84.097656 2.125 84.808594 2.382812 85.507812 2.679688 C 86.207031 2.976562 86.886719 3.304688 87.554688 3.667969 C 88.21875 4.03125 88.867188 4.425781 89.492188 4.851562 C 90.121094 5.277344 90.726562 5.734375 91.308594 6.21875 C 91.890625 6.703125 92.449219 7.21875 92.980469 7.757812 C 93.511719 8.296875 94.015625 8.863281 94.492188 9.453125 C 94.96875 10.042969 95.417969 10.65625 95.832031 11.289062 Z M 95.832031 11.289062 " fill-opacity="1" fill-rule="nonzero"/></g></g></g></g><path fill="#ff1616" d="M 151.648438 132.796875 L 177.765625 115.652344 C 178.398438 115.234375 179.050781 114.851562 179.722656 114.496094 C 180.394531 114.144531 181.082031 113.828125 181.785156 113.542969 C 182.488281 113.257812 183.203125 113.007812 183.929688 112.792969 C 184.65625 112.578125 185.394531 112.398438 186.136719 112.257812 C 186.882812 112.117188 187.632812 112.011719 188.386719 111.941406 C 189.144531 111.875 189.902344 111.84375 190.660156 111.847656 C 191.417969 111.855469 192.171875 111.898438 192.929688 111.976562 C 193.683594 112.058594 194.429688 112.175781 195.171875 112.328125 C 195.914062 112.480469 196.648438 112.671875 197.375 112.898438 C 198.097656 113.125 198.808594 113.382812 199.507812 113.679688 C 200.207031 113.976562 200.886719 114.304688 201.554688 114.667969 C 202.21875 115.03125 202.867188 115.425781 203.492188 115.851562 C 204.121094 116.277344 204.726562 116.734375 205.308594 117.21875 C 205.890625 117.703125 206.449219 118.21875 206.980469 118.757812 C 207.511719 119.296875 208.015625 119.863281 208.492188 120.453125 C 208.96875 121.042969 209.417969 121.65625 209.832031 122.289062 C 210.25 122.921875 210.632812 123.574219 210.984375 124.246094 C 211.339844 124.917969 211.65625 125.605469 211.941406 126.308594 C 212.226562 127.011719 212.476562 127.726562 212.691406 128.457031 C 212.90625 129.183594 213.082031 129.917969 213.226562 130.664062 C 213.367188 131.410156 213.472656 132.160156 213.539062 132.914062 C 213.609375 133.671875 213.640625 134.425781 213.632812 135.1875 C 213.628906 135.945312 213.585938 136.699219 213.503906 137.453125 C 213.425781 138.210938 213.308594 138.957031 213.152344 139.699219 C 213 140.441406 212.808594 141.175781 212.582031 141.902344 C 212.359375 142.625 212.097656 143.335938 211.800781 144.035156 C 211.503906 144.734375 211.175781 145.414062 210.8125 146.082031 C 210.449219 146.746094 210.054688 147.394531 209.628906 148.019531 C 209.203125 148.648438 208.746094 149.253906 208.261719 149.835938 C 207.773438 150.417969 207.261719 150.976562 206.722656 151.507812 C 206.179688 152.039062 205.613281 152.542969 205.023438 153.019531 C 204.433594 153.496094 203.824219 153.941406 203.1875 154.359375 L 177.074219 171.511719 Z M 151.648438 132.796875 " fill-opacity="1" fill-rule="nonzero"/><g mask="url(#1b014f8c4f)"><g transform="matrix(1, 0, 0, 1, 115, 118)"><g clip-path="url(#1eb377a41e)"><g clip-path="url(#c4659e2cc0)"><path fill="#737373" d="M 83.144531 28.675781 L 30.914062 62.980469 C 29.804688 63.710938 28.644531 64.335938 27.425781 64.867188 C 26.210938 65.394531 24.957031 65.816406 23.667969 66.128906 C 22.378906 66.441406 21.074219 66.644531 19.75 66.730469 C 18.425781 66.820312 17.105469 66.796875 15.785156 66.660156 C 14.464844 66.519531 13.167969 66.269531 11.890625 65.910156 C 10.617188 65.546875 9.378906 65.082031 8.183594 64.507812 C 6.988281 63.933594 5.847656 63.261719 4.769531 62.492188 C 3.6875 61.722656 2.679688 60.867188 1.746094 59.925781 C 2.066406 60.71875 2.425781 61.492188 2.832031 62.246094 C 3.234375 63 3.679688 63.730469 4.164062 64.433594 C 4.648438 65.140625 5.171875 65.8125 5.730469 66.460938 C 6.292969 67.105469 6.886719 67.722656 7.511719 68.300781 C 8.140625 68.882812 8.796875 69.425781 9.488281 69.933594 C 10.175781 70.441406 10.886719 70.910156 11.628906 71.339844 C 12.367188 71.769531 13.128906 72.15625 13.910156 72.5 C 14.695312 72.84375 15.492188 73.144531 16.308594 73.402344 C 17.125 73.65625 17.953125 73.867188 18.792969 74.03125 C 19.632812 74.195312 20.476562 74.3125 21.328125 74.382812 C 22.183594 74.453125 23.035156 74.476562 23.890625 74.453125 C 24.746094 74.429688 25.59375 74.359375 26.441406 74.242188 C 27.289062 74.125 28.128906 73.957031 28.957031 73.75 C 29.785156 73.539062 30.597656 73.28125 31.398438 72.980469 C 32.199219 72.679688 32.980469 72.335938 33.742188 71.949219 C 34.507812 71.558594 35.246094 71.132812 35.960938 70.660156 L 88.191406 36.359375 C 88.902344 35.890625 89.589844 35.382812 90.25 34.835938 C 90.90625 34.292969 91.535156 33.710938 92.128906 33.097656 C 92.722656 32.480469 93.28125 31.835938 93.804688 31.160156 C 94.324219 30.480469 94.808594 29.777344 95.253906 29.046875 C 95.699219 28.316406 96.101562 27.566406 96.460938 26.789062 C 96.824219 26.015625 97.140625 25.222656 97.414062 24.414062 C 97.6875 23.601562 97.917969 22.78125 98.097656 21.945312 C 98.28125 21.109375 98.417969 20.265625 98.507812 19.414062 C 98.597656 18.566406 98.636719 17.710938 98.632812 16.859375 C 98.628906 16.003906 98.574219 15.148438 98.476562 14.300781 C 98.375 13.453125 98.230469 12.609375 98.035156 11.777344 C 97.84375 10.945312 97.605469 10.125 97.324219 9.316406 C 97.039062 8.511719 96.710938 7.722656 96.339844 6.953125 C 95.96875 6.183594 95.558594 5.433594 95.105469 4.710938 C 94.652344 3.984375 94.15625 3.289062 93.628906 2.617188 C 93.097656 1.945312 92.53125 1.308594 91.929688 0.699219 C 92.421875 1.929688 92.808594 3.195312 93.082031 4.492188 C 93.359375 5.789062 93.523438 7.101562 93.574219 8.425781 C 93.625 9.75 93.5625 11.070312 93.386719 12.386719 C 93.210938 13.699219 92.925781 14.988281 92.527344 16.253906 C 92.128906 17.519531 91.628906 18.742188 91.019531 19.921875 C 90.414062 21.101562 89.710938 22.21875 88.910156 23.277344 C 88.113281 24.335938 87.226562 25.316406 86.257812 26.222656 C 85.292969 27.128906 84.253906 27.949219 83.144531 28.675781 Z M 83.144531 28.675781 " fill-opacity="1" fill-rule="nonzero"/></g></g></g></g><path fill="#f5f5f5" d="M 164.78125 136.046875 C 164.925781 136.269531 165.050781 136.503906 165.148438 136.75 C 165.25 136.996094 165.324219 137.25 165.375 137.511719 C 165.421875 137.769531 165.449219 138.035156 165.445312 138.300781 C 165.441406 138.566406 165.414062 138.828125 165.359375 139.089844 C 165.308594 139.347656 165.230469 139.601562 165.125 139.84375 C 165.023438 140.089844 164.894531 140.324219 164.746094 140.542969 C 164.597656 140.761719 164.425781 140.964844 164.238281 141.152344 C 164.050781 141.335938 163.84375 141.503906 163.621094 141.648438 L 131.359375 162.839844 C 131.136719 162.984375 130.902344 163.105469 130.65625 163.207031 C 130.410156 163.304688 130.15625 163.382812 129.894531 163.429688 C 129.636719 163.480469 129.371094 163.503906 129.105469 163.5 C 128.839844 163.5 128.578125 163.472656 128.316406 163.417969 C 128.058594 163.363281 127.804688 163.285156 127.5625 163.179688 C 127.316406 163.078125 127.085938 162.949219 126.863281 162.800781 C 126.644531 162.652344 126.441406 162.484375 126.253906 162.292969 C 126.070312 162.105469 125.902344 161.898438 125.757812 161.675781 C 125.613281 161.453125 125.488281 161.21875 125.390625 160.972656 C 125.289062 160.726562 125.214844 160.476562 125.167969 160.214844 C 125.117188 159.953125 125.09375 159.691406 125.09375 159.425781 C 125.097656 159.160156 125.125 158.898438 125.179688 158.636719 C 125.234375 158.375 125.3125 158.125 125.414062 157.878906 C 125.519531 157.636719 125.644531 157.402344 125.792969 157.183594 C 125.945312 156.964844 126.113281 156.761719 126.300781 156.574219 C 126.492188 156.390625 126.695312 156.222656 126.917969 156.078125 L 159.179688 134.890625 C 159.402344 134.742188 159.636719 134.621094 159.882812 134.519531 C 160.128906 134.421875 160.382812 134.347656 160.640625 134.296875 C 160.902344 134.246094 161.167969 134.222656 161.433594 134.226562 C 161.695312 134.226562 161.960938 134.253906 162.21875 134.308594 C 162.480469 134.363281 162.734375 134.441406 162.976562 134.542969 C 163.222656 134.648438 163.453125 134.773438 163.671875 134.921875 C 163.894531 135.074219 164.097656 135.242188 164.28125 135.429688 C 164.46875 135.621094 164.636719 135.824219 164.78125 136.046875 Z M 164.78125 136.046875 " fill-opacity="1" fill-rule="nonzero"/><g fill="#000000" fill-opacity="1"><g transform="translate(168.95094, 263.309076)"><g><path d="M 2.3125 0 L 0.90625 0 L 0.90625 -7.875 L 6.53125 -7.875 L 6.53125 -6.65625 L 2.3125 -6.65625 L 2.3125 -4.71875 L 5.53125 -4.71875 L 5.53125 -3.5625 L 2.3125 -3.5625 Z M 2.3125 0 "/></g></g></g><g fill="#000000" fill-opacity="1"><g transform="translate(176.143238, 263.309076)"><g><path d="M 0.265625 0 L 2.78125 -7.875 L 5.125 -7.875 L 7.71875 0 L 6.1875 0 L 5.515625 -2.21875 L 2.453125 -2.21875 L 1.78125 0 Z M 3.96875 -7.28125 L 2.78125 -3.328125 L 5.1875 -3.328125 Z M 3.96875 -7.28125 "/></g></g></g><g fill="#000000" fill-opacity="1"><g transform="translate(184.622813, 263.309076)"><g><path d="M 4.21875 0.140625 C 3.476562 0.140625 2.804688 -0.0078125 2.203125 -0.3125 C 1.609375 -0.613281 1.132812 -1.0625 0.78125 -1.65625 C 0.4375 -2.257812 0.265625 -3.007812 0.265625 -3.90625 C 0.273438 -4.78125 0.453125 -5.523438 0.796875 -6.140625 C 1.140625 -6.753906 1.609375 -7.21875 2.203125 -7.53125 C 2.804688 -7.851562 3.488281 -8.015625 4.25 -8.015625 C 4.976562 -8.015625 5.597656 -7.882812 6.109375 -7.625 C 6.628906 -7.363281 7.046875 -7.007812 7.359375 -6.5625 C 7.671875 -6.113281 7.875 -5.609375 7.96875 -5.046875 L 6.5 -5.046875 C 6.425781 -5.460938 6.269531 -5.789062 6.03125 -6.03125 C 5.800781 -6.269531 5.523438 -6.4375 5.203125 -6.53125 C 4.890625 -6.625 4.570312 -6.671875 4.25 -6.671875 C 3.425781 -6.671875 2.789062 -6.4375 2.34375 -5.96875 C 1.90625 -5.507812 1.6875 -4.851562 1.6875 -4 C 1.6875 -3.09375 1.898438 -2.394531 2.328125 -1.90625 C 2.765625 -1.425781 3.398438 -1.1875 4.234375 -1.1875 C 4.578125 -1.1875 4.910156 -1.238281 5.234375 -1.34375 C 5.554688 -1.457031 5.832031 -1.632812 6.0625 -1.875 C 6.300781 -2.125 6.457031 -2.460938 6.53125 -2.890625 L 8.015625 -2.890625 C 7.910156 -2.304688 7.703125 -1.785156 7.390625 -1.328125 C 7.078125 -0.878906 6.65625 -0.519531 6.125 -0.25 C 5.59375 0.0078125 4.957031 0.140625 4.21875 0.140625 Z M 4.21875 0.140625 "/></g></g></g><g fill="#000000" fill-opacity="1"><g transform="translate(193.606113, 263.309076)"><g><path d="M 4.359375 -1.21875 L 4.359375 0 L 0.84375 0 L 0.84375 -1.21875 L 1.90625 -1.21875 L 1.90625 -6.65625 L 0.84375 -6.65625 L 0.84375 -7.875 L 4.359375 -7.875 L 4.359375 -6.65625 L 3.3125 -6.65625 L 3.3125 -1.21875 Z M 4.359375 -1.21875 "/></g></g></g><g fill="#000000" fill-opacity="1"><g transform="translate(199.455159, 263.309076)"><g><path d="M 0.875 0 L 0.875 -7.875 L 2.3125 -7.875 L 2.3125 -1.21875 L 6.203125 -1.21875 L 6.203125 0 Z M 0.875 0 "/></g></g></g><g fill="#000000" fill-opacity="1"><g transform="translate(119.960482, 235.109077)"><g><path d="M 16.125 0 L 16.125 -0.945312 C 12.59375 -0.945312 11.9375 -1.4375 11.9375 -4.511719 L 11.9375 -12.0625 C 16.042969 -12.0625 18.503906 -10.296875 19.363281 -5.949219 L 20.308594 -5.949219 L 20.308594 -19.117188 L 19.363281 -19.117188 C 18.503906 -14.769531 16.042969 -13.003906 11.9375 -13.003906 L 11.9375 -22.644531 C 11.9375 -25.148438 12.839844 -26.214844 15.546875 -26.214844 C 19.570312 -26.214844 21.949219 -23.835938 23.957031 -17.886719 L 24.902344 -17.886719 L 23.753906 -27.160156 L 0.574219 -27.160156 L 0.574219 -26.214844 C 4.101562 -26.214844 4.675781 -25.722656 4.675781 -22.644531 L 4.675781 -4.511719 C 4.675781 -1.4375 4.101562 -0.945312 0.574219 -0.945312 L 0.574219 0 Z M 16.125 0 "/></g></g></g><g fill="#000000" fill-opacity="1"><g transform="translate(145.355356, 235.109077)"><g><path d="M 0.820312 -4.882812 C 0.820312 -1.804688 3.570312 0.328125 7.015625 0.328125 C 8.984375 0.328125 11.527344 -0.410156 13.003906 -3.242188 C 13.742188 -0.78125 15.300781 0.328125 18.132812 0.328125 C 19.773438 0.328125 21.414062 -0.0429688 22.933594 -0.699219 L 22.933594 -1.640625 C 22.441406 -1.4375 21.949219 -1.355469 21.539062 -1.355469 C 20.390625 -1.355469 19.652344 -2.132812 19.652344 -3.527344 L 19.652344 -11.445312 C 19.652344 -17.683594 15.628906 -20.839844 10.132812 -20.839844 C 5.332031 -20.839844 2.339844 -18.421875 2.339844 -15.179688 C 2.339844 -13.085938 3.609375 -11.734375 5.496094 -11.734375 C 7.425781 -11.734375 8.738281 -13.128906 8.738281 -15.179688 C 7.917969 -16.042969 7.507812 -16.984375 7.507812 -17.847656 C 7.507812 -18.996094 8.289062 -19.898438 9.765625 -19.898438 C 11.773438 -19.898438 12.675781 -18.214844 12.675781 -15.054688 C 12.675781 -14.113281 12.59375 -13.003906 12.429688 -11.816406 C 7.628906 -11.40625 0.820312 -9.765625 0.820312 -4.882812 Z M 7.835938 -4.800781 C 7.835938 -8.65625 9.558594 -10.257812 12.390625 -10.789062 L 12.390625 -8.945312 C 12.390625 -3.816406 10.75 -1.191406 9.4375 -1.191406 C 8.453125 -1.191406 7.835938 -2.503906 7.835938 -4.800781 Z M 7.835938 -4.800781 "/></g></g></g><g fill="#000000" fill-opacity="1"><g transform="translate(168.534835, 235.109077)"><g><path d="M 0.492188 0 L 14.316406 0 L 14.316406 -0.945312 L 13.414062 -0.945312 C 11.609375 -0.945312 11.035156 -1.847656 11.035156 -4.226562 L 11.035156 -9.148438 C 11.035156 -16.371094 14.113281 -19.855469 15.957031 -19.855469 C 16.78125 -19.855469 17.394531 -19.363281 17.394531 -18.503906 C 17.394531 -17.722656 16.902344 -16.699219 15.671875 -15.425781 C 15.671875 -13.375 16.984375 -11.980469 18.914062 -11.980469 C 20.800781 -11.980469 22.070312 -13.332031 22.070312 -15.507812 C 22.070312 -18.75 19.28125 -20.839844 16.574219 -20.839844 C 14.316406 -20.839844 12.347656 -19.242188 11.035156 -16.863281 L 11.035156 -20.308594 L 10.132812 -20.636719 C 8.699219 -19.117188 6.769531 -19.035156 1.394531 -19.035156 L 0.699219 -19.035156 L 0.699219 -18.09375 C 2.953125 -18.09375 3.773438 -17.4375 3.773438 -15.710938 L 3.773438 -4.226562 C 3.773438 -1.847656 3.199219 -0.945312 1.394531 -0.945312 L 0.492188 -0.945312 Z M 0.492188 0 "/></g></g></g><g fill="#000000" fill-opacity="1"><g transform="translate(190.852781, 235.109077)"><g><path d="M 0.492188 0 L 13.414062 0 L 13.414062 -0.945312 C 11.609375 -1.066406 11.035156 -1.847656 11.035156 -4.226562 L 11.035156 -15.507812 C 12.101562 -17.765625 13.457031 -19.035156 14.769531 -19.035156 C 16.042969 -19.035156 16.984375 -17.96875 16.984375 -16 L 16.984375 -4.226562 C 16.984375 -1.847656 16.328125 -1.066406 14.523438 -0.945312 L 14.523438 0 L 26.625 0 L 26.625 -0.945312 C 24.820312 -1.066406 24.246094 -1.847656 24.246094 -4.226562 L 24.246094 -15.464844 C 25.3125 -17.722656 26.667969 -19.035156 27.980469 -19.035156 C 29.25 -19.035156 30.195312 -17.96875 30.195312 -16 L 30.195312 -4.226562 C 30.195312 -1.847656 29.539062 -1.066406 27.734375 -0.945312 L 27.734375 0 L 40.738281 0 L 40.738281 -0.945312 L 39.835938 -0.945312 C 38.03125 -0.945312 37.457031 -1.847656 37.457031 -4.226562 L 37.457031 -13.332031 C 37.457031 -17.886719 35.199219 -20.839844 30.644531 -20.839844 C 27.488281 -20.839844 25.4375 -19.242188 23.507812 -17.230469 C 22.523438 -19.488281 20.511719 -20.839844 17.4375 -20.839844 C 15.054688 -20.839844 13.167969 -19.9375 11.035156 -17.847656 L 11.035156 -20.308594 L 10.132812 -20.636719 C 8.699219 -19.117188 6.769531 -19.035156 1.394531 -19.035156 L 0.699219 -19.035156 L 0.699219 -18.09375 C 2.953125 -18.09375 3.773438 -17.4375 3.773438 -15.710938 L 3.773438 -4.226562 C 3.773438 -1.847656 3.199219 -0.945312 1.394531 -0.945312 L 0.492188 -0.945312 Z M 0.492188 0 "/></g></g></g><g fill="#000000" fill-opacity="1"><g transform="translate(231.83739, 235.109077)"><g><path d="M 0.820312 -4.882812 C 0.820312 -1.804688 3.570312 0.328125 7.015625 0.328125 C 8.984375 0.328125 11.527344 -0.410156 13.003906 -3.242188 C 13.742188 -0.78125 15.300781 0.328125 18.132812 0.328125 C 19.773438 0.328125 21.414062 -0.0429688 22.933594 -0.699219 L 22.933594 -1.640625 C 22.441406 -1.4375 21.949219 -1.355469 21.539062 -1.355469 C 20.390625 -1.355469 19.652344 -2.132812 19.652344 -3.527344 L 19.652344 -11.445312 C 19.652344 -17.683594 15.628906 -20.839844 10.132812 -20.839844 C 5.332031 -20.839844 2.339844 -18.421875 2.339844 -15.179688 C 2.339844 -13.085938 3.609375 -11.734375 5.496094 -11.734375 C 7.425781 -11.734375 8.738281 -13.128906 8.738281 -15.179688 C 7.917969 -16.042969 7.507812 -16.984375 7.507812 -17.847656 C 7.507812 -18.996094 8.289062 -19.898438 9.765625 -19.898438 C 11.773438 -19.898438 12.675781 -18.214844 12.675781 -15.054688 C 12.675781 -14.113281 12.59375 -13.003906 12.429688 -11.816406 C 7.628906 -11.40625 0.820312 -9.765625 0.820312 -4.882812 Z M 7.835938 -4.800781 C 7.835938 -8.65625 9.558594 -10.257812 12.390625 -10.789062 L 12.390625 -8.945312 C 12.390625 -3.816406 10.75 -1.191406 9.4375 -1.191406 C 8.453125 -1.191406 7.835938 -2.503906 7.835938 -4.800781 Z M 7.835938 -4.800781 "/></g></g></g></svg>